<svg width="34" height="34" viewBox="0 0 34 34" fill="none" xmlns="http://www.w3.org/2000/svg">
    <g clip-path="url(#clip0_1463_5452)">
        <path d="M14.6368 8.5H3.1875V9.32233H14.6368V8.5Z" fill="#7D7D7D"/>
        <path d="M23.1121 33.763H33.3121C33.3716 33.7641 33.4307 33.7531 33.4858 33.7309C33.541 33.7086 33.5911 33.6754 33.6332 33.6334C33.6753 33.5913 33.7084 33.5412 33.7307 33.486C33.7529 33.4309 33.7639 33.3718 33.7628 33.3123V14.6123C33.7572 12.6891 32.9895 10.8466 31.6279 9.48853L28.133 5.96995C28.1227 5.94187 28.1227 5.91106 28.133 5.88297V2.72018C28.133 2.36031 28.0616 2.00402 27.923 1.67193C27.7843 1.33985 27.5811 1.03858 27.3252 0.785584C27.0693 0.532591 26.7657 0.332901 26.432 0.198082C26.0983 0.0632647 25.7412 -0.00400066 25.3814 0.000183904H2.71209C1.99344 0.00226998 1.30483 0.288677 0.79666 0.796841C0.288493 1.30501 0.00208608 1.99363 0 2.71228V15.1816C0.00059921 15.8518 0.250076 16.4979 0.700052 16.9947C1.15003 17.4914 1.76843 17.8034 2.43535 17.8699C2.45629 17.8716 2.47632 17.8792 2.49313 17.8918C2.50993 17.9043 2.5228 17.9215 2.53023 17.9411L4.66512 23.476C4.79062 23.8112 4.98125 24.1183 5.226 24.3794C5.47075 24.6407 5.76478 24.8508 6.09114 24.9978C6.41749 25.1448 6.76972 25.2258 7.12751 25.236C7.48531 25.2462 7.84159 25.1855 8.17581 25.0574L21.4753 19.9336C21.4946 19.9226 21.5164 19.9167 21.5386 19.9167C21.5608 19.9167 21.5826 19.9226 21.6019 19.9336C21.6138 19.9526 21.6201 19.9745 21.6201 19.9969C21.6201 20.0193 21.6138 20.0413 21.6019 20.0602C21.1583 21.2271 20.9903 22.4809 21.1109 23.7235C21.2317 24.9661 21.6378 26.1641 22.2977 27.2239L22.6219 27.7457C22.6272 27.7665 22.6272 27.7883 22.6219 27.809V33.3439C22.6247 33.4042 22.64 33.4634 22.6665 33.5176C22.6931 33.5718 22.7305 33.6201 22.7764 33.6594C22.8224 33.6986 22.8758 33.7281 22.9336 33.7459C22.9913 33.7637 23.052 33.7695 23.1121 33.763ZM32.8693 32.7509C32.8693 32.7823 32.8568 32.8125 32.8346 32.8348C32.8123 32.857 32.7822 32.8695 32.7507 32.8695H23.7209C23.6895 32.8695 23.6593 32.857 23.637 32.8348C23.6148 32.8125 23.6023 32.7823 23.6023 32.7509V28.2123C23.6023 28.1808 23.6148 28.1507 23.637 28.1284C23.6593 28.1061 23.6895 28.0937 23.7209 28.0937H32.7507C32.7822 28.0937 32.8123 28.1061 32.8346 28.1284C32.8568 28.1507 32.8693 28.1808 32.8693 28.2123V32.7509ZM28.1251 15.1816V9.27504C28.126 9.24768 28.1356 9.22135 28.1528 9.19993C28.1699 9.17858 28.1935 9.16332 28.22 9.15644C28.246 9.15264 28.2725 9.15755 28.2954 9.17043C28.3183 9.18332 28.3363 9.20341 28.3465 9.2276L30.0465 13.695C30.1345 13.9193 30.1774 14.1587 30.1726 14.3995C30.1676 14.6403 30.1152 14.8778 30.0182 15.0983C29.9212 15.3187 29.7815 15.5178 29.6073 15.6841C29.433 15.8504 29.2276 15.9806 29.0028 16.0671L28.0144 16.4467C27.9865 16.4577 27.9554 16.4577 27.9274 16.4467C27.9157 16.4263 27.9094 16.4031 27.9094 16.3795C27.9094 16.3559 27.9157 16.3327 27.9274 16.3123C28.0639 15.9519 28.1205 15.5661 28.0935 15.1816H28.1251ZM0.925116 15.1816V2.71228C0.927196 2.2306 1.11947 1.76923 1.46007 1.42862C1.80068 1.08802 2.26204 0.89575 2.74372 0.89367H25.3814C25.8631 0.89575 26.3245 1.08802 26.665 1.42862C27.0056 1.76923 27.1979 2.2306 27.2 2.71228V15.1816C27.2082 15.2869 27.2082 15.3926 27.2 15.4978C27.1957 15.5193 27.1852 15.539 27.1697 15.5545C27.1542 15.57 27.1345 15.5805 27.113 15.5848C27.0953 15.5961 27.0748 15.602 27.0537 15.602C27.0327 15.602 27.0121 15.5961 26.9944 15.5848L21.8074 10.3899C21.2747 9.83422 20.5432 9.51288 19.7736 9.49652C19.004 9.48023 18.2594 9.77034 17.7037 10.3029C17.148 10.8356 16.8266 11.5672 16.8103 12.3369C16.794 13.1064 17.0841 13.851 17.6167 14.4067L19.7674 16.8025C19.7815 16.8206 19.7892 16.8428 19.7892 16.8657C19.7892 16.8887 19.7815 16.911 19.7674 16.929C19.7595 16.9499 19.7454 16.9678 19.727 16.9805C19.7087 16.9932 19.687 17.0001 19.6647 17.0002H2.71209C2.23041 16.9981 1.76905 16.8058 1.42844 16.4653C1.08784 16.1246 0.895568 15.6632 0.893488 15.1816H0.925116ZM4.27767 19.6806H4.1986C4.18332 19.6768 4.16936 19.6689 4.15822 19.6578C4.14708 19.6466 4.13918 19.6327 4.13535 19.6174L3.53442 18.036C3.52656 18.0186 3.52249 17.9998 3.52249 17.9806C3.52249 17.9616 3.52656 17.9427 3.53442 17.9253C3.54459 17.9091 3.55854 17.8956 3.57507 17.886C3.59159 17.8763 3.6102 17.8709 3.6293 17.8699H8.25488C8.26943 17.8689 8.28406 17.8707 8.2979 17.8753C8.31174 17.8799 8.32454 17.8872 8.33554 17.8967C8.3466 17.9062 8.35562 17.9179 8.3621 17.931C8.36859 17.944 8.37246 17.9582 8.37349 17.9727C8.37887 17.9989 8.3746 18.026 8.36155 18.0493C8.34842 18.0725 8.32747 18.0903 8.30233 18.0992L4.26977 19.6806H4.27767ZM21.5465 18.8899L7.85163 24.1955C7.64163 24.2736 7.41941 24.3138 7.19535 24.3141C6.94153 24.3167 6.69032 24.2627 6.46 24.156C6.03488 23.9514 5.70396 23.5922 5.53488 23.1518L4.58605 20.6611C4.5754 20.6327 4.57601 20.6013 4.58778 20.5734C4.59954 20.5455 4.62156 20.5231 4.6493 20.5109L11.394 17.9095H11.4572H20.74C20.7731 17.9108 20.8043 17.925 20.827 17.949L21.5623 18.7397C21.5713 18.7568 21.576 18.7758 21.576 18.795C21.576 18.8143 21.5713 18.8334 21.5623 18.8504C21.5596 18.8649 21.5539 18.8785 21.5457 18.8908C21.5376 18.903 21.5271 18.9135 21.5149 18.9216L21.5465 18.8899ZM22.9698 19.3406C23.0163 19.2583 23.0353 19.1632 23.0239 19.0693C23.0125 18.9754 22.9714 18.8876 22.9065 18.8188L18.2651 13.7504C17.9132 13.3627 17.7265 12.853 17.745 12.3296C17.7634 11.8063 17.9855 11.3109 18.364 10.949C18.7424 10.5871 19.2472 10.3873 19.7708 10.3921C20.2944 10.397 20.7953 10.6062 21.167 10.975L30.0465 19.9495L30.6791 19.3169L28.7023 17.3006C28.6933 17.2836 28.6886 17.2646 28.6886 17.2453C28.6886 17.226 28.6933 17.207 28.7023 17.1899C28.7053 17.1704 28.7136 17.1521 28.726 17.1368C28.7385 17.1215 28.7549 17.1098 28.7735 17.103L29.3507 16.8816C29.6852 16.7552 29.9916 16.5641 30.2523 16.3191C30.5129 16.0742 30.7226 15.7803 30.8695 15.4542C31.0164 15.1281 31.0975 14.7762 31.1083 14.4188C31.119 14.0613 31.0592 13.7052 30.9321 13.3709L29.0186 8.38946C29.0089 8.36392 29.0083 8.33577 29.0169 8.30984C29.0256 8.2839 29.043 8.26176 29.066 8.24714C29.0883 8.23219 29.1144 8.22421 29.1412 8.22421C29.168 8.22421 29.1941 8.23219 29.2163 8.24714L31.0507 10.0895C32.248 11.2841 32.922 12.9051 32.9247 14.5964V27.0816C32.9247 27.113 32.9122 27.1432 32.8899 27.1654C32.8676 27.1877 32.8375 27.2002 32.806 27.2002H23.4284C23.4082 27.1993 23.3884 27.1938 23.3707 27.1843C23.3529 27.1747 23.3374 27.1612 23.3256 27.1448L23.0805 26.7495C22.3885 25.6491 22.0089 24.3812 21.9825 23.0817C21.956 21.7821 22.2836 20.4999 22.9302 19.3723L22.9698 19.3406Z" fill="#7D7D7D"/>
        <path d="M5.21959 11.9717H3.1875V12.8652H5.21959V11.9717Z" fill="#7D7D7D"/>
        <path d="M8.76157 11.9717H6.72949V12.8652H8.76157V11.9717Z" fill="#7D7D7D"/>
    </g>
    <defs>
        <clipPath id="clip0_1463_5452">
            <rect width="34" height="34" fill="white"/>
        </clipPath>
    </defs>
</svg>
