<svg width="38" height="32" viewBox="0 0 38 32" fill="none" xmlns="http://www.w3.org/2000/svg">
    <g clip-path="url(#clip0_1463_5442)">
        <path d="M11.9863 15H15.9814" stroke="#1F1F1F" stroke-width="0.744186"/>
        <path d="M24.457 15H28.4521" stroke="#1F1F1F" stroke-width="0.744186"/>
        <path d="M6.06512 10.0458L6.38512 10.2616C7.25364 10.8559 8.27297 11.1913 9.32465 11.2291H9.36186V18.0309H31.107V4.25605H21.3656L18.6047 1.39093C18.1832 0.94943 17.677 0.597584 17.1163 0.356516C16.5472 0.113978 15.9339 -0.00766247 15.3153 -0.000693161H8.76651C8.36837 0.00124485 7.97604 0.095497 7.62046 0.274656L6.45209 0.870003C6.22314 0.990806 5.96663 1.0498 5.70791 1.04117H5.14233V-0.000693161H0V11.6384H5.12V10.0384H6.06512V10.0458ZM4.16 10.6486H0.967442V0.974189H4.16V10.6486ZM30.1395 5.24582V17.0337H10.3219V7.81327H10.3591C11.1687 7.87146 11.9748 7.65944 12.6512 7.21047L15.1367 9.67373C15.325 9.86432 15.5492 10.0156 15.7965 10.1189C16.0436 10.2221 16.3088 10.2753 16.5767 10.2753C16.8447 10.2753 17.1099 10.2221 17.357 10.1189C17.6042 10.0156 17.8285 9.86432 18.0167 9.67373L18.307 9.28675C18.4738 9.01334 18.5757 8.70525 18.6047 8.38629C18.6363 8.0651 18.5904 7.74093 18.4707 7.44117L18.2251 7.03186C18.1722 6.94771 18.1125 6.86806 18.0465 6.79372L17.6893 6.39186L16.5879 5.24582H30.1395ZM5.12 2.01605H5.64837C6.0788 2.02604 6.50524 1.93155 6.89116 1.7407L8.05209 1.13791C8.28272 1.02163 8.53805 0.962907 8.79628 0.966747H15.3377C15.8182 0.967141 16.2938 1.06328 16.7367 1.24954C17.1833 1.44198 17.5879 1.72009 17.9274 2.06814L20.0409 4.23372H15.6279L14.3777 2.97605L13.693 3.72024L17.3395 7.44117C17.4383 7.54461 17.5166 7.66577 17.5702 7.79838C17.6273 7.93234 17.6552 8.07693 17.6521 8.22257C17.6545 8.36813 17.6266 8.51258 17.5702 8.64675C17.5193 8.78071 17.4407 8.90246 17.3395 9.00396C17.2424 9.10874 17.1228 9.19016 16.9898 9.2421C16.8612 9.30075 16.7217 9.33118 16.5805 9.33141C16.4392 9.33118 16.2997 9.30075 16.1712 9.2421C16.0381 9.19016 15.9185 9.10874 15.8214 9.00396L12.7777 5.86349L12.4353 6.16117C11.9464 6.58998 11.3218 6.83244 10.6716 6.84582H10.627C9.99062 6.84368 9.37496 6.62002 8.88558 6.21326L8.61767 5.99744L8.00744 6.74163L8.28279 6.97233C8.59676 7.2318 8.95129 7.43796 9.33209 7.58257V10.217H9.29488C8.43453 10.1775 7.60223 9.89922 6.89116 9.41327L6.31814 9.03373H5.12V2.01605Z" fill="#1F1F1F"/>
        <path d="M19.0654 9.39044C18.7226 9.74601 18.49 10.1931 18.3956 10.6779C18.2967 11.1772 18.3459 11.6945 18.537 12.1662C18.7216 12.6204 19.0346 13.0109 19.4375 13.29C19.9056 13.6129 20.4734 13.7587 21.0391 13.7014C21.6049 13.6441 22.1319 13.3875 22.5258 12.9774C22.9978 12.5084 23.2653 11.8717 23.27 11.2062C23.2708 10.7103 23.1287 10.2246 22.8607 9.80718C22.5941 9.39929 22.2138 9.07847 21.7668 8.88439C21.4746 8.74902 21.1584 8.67311 20.8365 8.66113C20.6767 8.66128 20.5173 8.67624 20.3602 8.70578C19.8687 8.79613 19.4168 9.03509 19.0654 9.39044ZM21.7668 10.1793C21.8951 10.3085 21.9966 10.4618 22.0656 10.6304C22.1345 10.799 22.1696 10.9795 22.1686 11.1616C22.1621 11.4263 22.0823 11.6839 21.9379 11.9058C21.7874 12.1361 21.5727 12.3172 21.3202 12.4267C21.155 12.4948 20.9781 12.5302 20.7993 12.5309C20.7104 12.5419 20.6204 12.5419 20.5314 12.5309C20.2655 12.4773 20.0218 12.3451 19.8319 12.1514C19.642 11.952 19.513 11.7024 19.4602 11.4321C19.4075 11.1617 19.4331 10.882 19.5342 10.6258C19.6348 10.3685 19.8113 10.1479 20.0402 9.99323C20.2583 9.84 20.5179 9.75695 20.7844 9.75509C20.9685 9.75457 21.1508 9.79192 21.3198 9.86485C21.4888 9.93786 21.641 10.0449 21.7668 10.1793Z" fill="#1F1F1F"/>
        <path d="M33.1075 31.7838C33.1997 31.8725 33.3219 31.9231 33.4499 31.9252H37.3717C37.5046 31.9252 37.6323 31.873 37.7269 31.7796C37.8216 31.6863 37.8758 31.5595 37.8778 31.4266V19.2071C37.8717 19.0728 37.816 18.9455 37.7215 18.8499C37.6286 18.7632 37.5061 18.7154 37.3792 18.7159H33.4871C33.3575 18.7135 33.232 18.7615 33.1373 18.8499C33.0428 18.9455 32.9871 19.0728 32.981 19.2071V21.9531H32.9215C31.7528 21.2209 30.401 20.8339 29.0219 20.8368H24.0359C23.6069 20.8363 23.1795 20.8889 22.7633 20.9931L15.2768 22.9206C14.9604 23.002 14.6657 23.1519 14.4136 23.3596C14.1666 23.5627 13.9661 23.8166 13.8257 24.1038L7.32891 22.5038C7.15192 22.4685 6.97301 22.4437 6.79309 22.4294C6.60472 22.4184 6.41588 22.4184 6.22751 22.4294C5.81934 22.4816 5.43461 22.6495 5.11867 22.9131C4.8117 23.1841 4.58515 23.5342 4.46379 23.9252C4.39122 24.1831 4.37096 24.4529 4.40419 24.7187C4.43742 24.9846 4.52347 25.2411 4.65728 25.4731C4.8022 25.7229 4.99629 25.9408 5.22782 26.1135C5.45933 26.2861 5.72347 26.4101 6.00425 26.4778L18.0452 29.5587C18.6528 29.7162 19.2779 29.7962 19.9057 29.7968H29.0219C30.3774 29.7941 31.7059 29.4182 32.8619 28.7103H32.9215V31.4638C32.9295 31.5269 32.9502 31.5877 32.9821 31.6426C33.0141 31.6976 33.0567 31.7456 33.1075 31.7838ZM33.9857 19.7057H36.8433V30.9354H33.9857V19.7057ZM32.9364 27.4824L32.7131 27.6387C31.6394 28.4147 30.3467 28.8291 29.0219 28.822H19.8908C19.3541 28.8147 18.8199 28.7473 18.2982 28.621L6.26472 25.5327C6.02335 25.4765 5.80819 25.3401 5.65449 25.1457C5.50289 24.9517 5.41689 24.7146 5.40891 24.4685C5.41031 24.3707 5.42279 24.2733 5.44612 24.1782C5.53745 23.9138 5.71587 23.6881 5.95216 23.5382C6.17429 23.4004 6.43687 23.3427 6.69635 23.3745H6.85263L13.6545 25.1159C13.6635 25.2243 13.6835 25.3316 13.714 25.4359C13.8533 25.8841 14.1335 26.2753 14.513 26.5515C14.8924 26.8277 15.3508 26.9741 15.8201 26.9689C16.0087 26.9699 16.1965 26.9448 16.3782 26.8945L21.1038 25.6815C21.1927 25.6649 21.2753 25.6236 21.3419 25.5624C21.4107 25.5011 21.4599 25.4209 21.4833 25.3317C21.5057 25.2464 21.5057 25.1567 21.4833 25.0713C21.4609 24.9877 21.4143 24.9127 21.3494 24.8554C21.2823 24.7892 21.1967 24.7451 21.1038 24.7289C21.0159 24.7066 20.9238 24.7066 20.8359 24.7289L16.1326 26.0461C16.0362 26.0572 15.9389 26.0572 15.8424 26.0461C15.6043 26.0467 15.3722 25.9711 15.1801 25.8303C14.978 25.6863 14.829 25.4797 14.7559 25.2424C14.7284 25.1533 14.7159 25.0603 14.7187 24.9671C14.7177 24.9497 14.7177 24.9323 14.7187 24.915V24.8554C14.7496 24.6342 14.8454 24.427 14.994 24.2601C15.1444 24.0939 15.3416 23.9772 15.5596 23.9252L23.0461 22.0052C23.3787 21.9164 23.7214 21.8713 24.0657 21.8713H29.0219C30.3514 21.8484 31.6539 22.2469 32.7429 23.0099L32.981 23.181V27.475L32.9364 27.4824Z" fill="#1F1F1F"/>
    </g>
    <defs>
        <clipPath id="clip0_1463_5442">
            <rect width="37.9535" height="32" fill="white"/>
        </clipPath>
    </defs>
</svg>
