<?xml version="1.0" standalone="no"?>
<!DOCTYPE svg PUBLIC "-//W3C//DTD SVG 20010904//EN"
 "http://www.w3.org/TR/2001/REC-SVG-20010904/DTD/svg10.dtd">
<svg version="1.0" xmlns="http://www.w3.org/2000/svg"
 width="48.000000pt" height="48.000000pt" viewBox="0 0 48.000000 48.000000"
 preserveAspectRatio="xMidYMid meet">

<g transform="translate(0.000000,48.000000) scale(0.100000,-0.100000)"
fill="#000000" stroke="none">
<path d="M333 353 c-58 -32 -65 -34 -98 -23 -64 21 -135 -19 -135 -77 0 -15
-10 -28 -30 -38 -16 -9 -30 -20 -30 -25 0 -16 19 -21 40 -10 17 9 20 8 20 -9
0 -11 -9 -22 -20 -26 -22 -7 -28 -35 -8 -35 7 0 92 30 190 66 114 42 178 71
178 80 0 19 -15 18 -79 -6 -29 -12 -55 -20 -56 -18 -2 2 -5 16 -7 32 -3 27 2
32 63 65 38 21 64 41 62 49 -7 18 -22 14 -90 -25z m-83 -68 c19 -23 -5 -45
-50 -45 -45 0 -69 22 -50 45 16 20 84 20 100 0z"/>
<path d="M190 270 c0 -5 5 -10 10 -10 6 0 10 5 10 10 0 6 -4 10 -10 10 -5 0
-10 -4 -10 -10z"/>
<path d="M218 131 c-37 -14 -68 -29 -68 -33 0 -13 57 -19 86 -8 36 14 64 39
64 57 0 16 -1 16 -82 -16z"/>
</g>
</svg>
